<mxfile host="app.diagrams.net" modified="2024-05-27T13:22:34.756Z" agent="Mozilla/5.0 (Windows NT 10.0; Win64; x64) AppleWebKit/537.36 (KHTML, like Gecko) Chrome/125.0.0.0 Safari/537.36" etag="5oiFysJtwvIGIKWJmMLQ" version="24.4.8" type="device">
  <diagram id="C5RBs43oDa-KdzZeNtuy" name="Page-1">
    <mxGraphModel dx="1195" dy="615" grid="1" gridSize="10" guides="1" tooltips="1" connect="1" arrows="1" fold="1" page="1" pageScale="1" pageWidth="827" pageHeight="1169" math="0" shadow="0">
      <root>
        <mxCell id="WIyWlLk6GJQsqaUBKTNV-0" />
        <mxCell id="WIyWlLk6GJQsqaUBKTNV-1" parent="WIyWlLk6GJQsqaUBKTNV-0" />
        <mxCell id="WIyWlLk6GJQsqaUBKTNV-3" value="메인 메뉴" style="rounded=1;whiteSpace=wrap;html=1;fontSize=12;glass=0;strokeWidth=1;shadow=0;arcSize=0;" parent="WIyWlLk6GJQsqaUBKTNV-1" vertex="1">
          <mxGeometry x="239" y="89" width="120" height="40" as="geometry" />
        </mxCell>
        <mxCell id="F_xe7TbDROOYynbk2gJU-1" value="이미지 경로 버튼" style="rounded=1;whiteSpace=wrap;html=1;fontSize=12;glass=0;strokeWidth=1;shadow=0;arcSize=0;" parent="WIyWlLk6GJQsqaUBKTNV-1" vertex="1">
          <mxGeometry x="319" y="236" width="120" height="40" as="geometry" />
        </mxCell>
        <mxCell id="F_xe7TbDROOYynbk2gJU-11" style="edgeStyle=orthogonalEdgeStyle;rounded=0;orthogonalLoop=1;jettySize=auto;html=1;exitX=0.503;exitY=0.95;exitDx=0;exitDy=0;entryX=0.5;entryY=0;entryDx=0;entryDy=0;exitPerimeter=0;" parent="WIyWlLk6GJQsqaUBKTNV-1" source="F_xe7TbDROOYynbk2gJU-4" edge="1">
          <mxGeometry relative="1" as="geometry">
            <mxPoint x="379" y="348" as="sourcePoint" />
            <mxPoint x="299" y="452" as="targetPoint" />
            <Array as="points">
              <mxPoint x="379" y="428" />
              <mxPoint x="299" y="428" />
            </Array>
          </mxGeometry>
        </mxCell>
        <mxCell id="F_xe7TbDROOYynbk2gJU-4" value="이미지 경로 창" style="rounded=1;whiteSpace=wrap;html=1;fontSize=12;glass=0;strokeWidth=1;shadow=0;arcSize=0;" parent="WIyWlLk6GJQsqaUBKTNV-1" vertex="1">
          <mxGeometry x="319" y="306" width="120" height="40" as="geometry" />
        </mxCell>
        <mxCell id="F_xe7TbDROOYynbk2gJU-7" value="" style="endArrow=classic;html=1;rounded=0;exitX=0.5;exitY=1;exitDx=0;exitDy=0;entryX=0.5;entryY=0;entryDx=0;entryDy=0;" parent="WIyWlLk6GJQsqaUBKTNV-1" source="F_xe7TbDROOYynbk2gJU-1" target="F_xe7TbDROOYynbk2gJU-4" edge="1">
          <mxGeometry width="50" height="50" relative="1" as="geometry">
            <mxPoint x="469" y="485" as="sourcePoint" />
            <mxPoint x="519" y="435" as="targetPoint" />
          </mxGeometry>
        </mxCell>
        <mxCell id="cR3Bwys2uu89FO36zkq3-2" style="edgeStyle=orthogonalEdgeStyle;rounded=0;orthogonalLoop=1;jettySize=auto;html=1;exitX=0.5;exitY=1;exitDx=0;exitDy=0;entryX=0.5;entryY=0;entryDx=0;entryDy=0;" parent="WIyWlLk6GJQsqaUBKTNV-1" source="F_xe7TbDROOYynbk2gJU-8" target="cR3Bwys2uu89FO36zkq3-0" edge="1">
          <mxGeometry relative="1" as="geometry" />
        </mxCell>
        <mxCell id="F_xe7TbDROOYynbk2gJU-8" value="이미지 경로 입력" style="rounded=1;whiteSpace=wrap;html=1;fontSize=12;glass=0;strokeWidth=1;shadow=0;arcSize=0;" parent="WIyWlLk6GJQsqaUBKTNV-1" vertex="1">
          <mxGeometry x="159" y="236" width="120" height="40" as="geometry" />
        </mxCell>
        <mxCell id="F_xe7TbDROOYynbk2gJU-18" style="edgeStyle=orthogonalEdgeStyle;rounded=0;orthogonalLoop=1;jettySize=auto;html=1;exitX=0;exitY=0.5;exitDx=0;exitDy=0;entryX=1;entryY=0.5;entryDx=0;entryDy=0;" parent="WIyWlLk6GJQsqaUBKTNV-1" source="F_xe7TbDROOYynbk2gJU-9" edge="1">
          <mxGeometry relative="1" as="geometry">
            <mxPoint x="166" y="476" as="targetPoint" />
          </mxGeometry>
        </mxCell>
        <mxCell id="F_xe7TbDROOYynbk2gJU-21" style="edgeStyle=orthogonalEdgeStyle;rounded=0;orthogonalLoop=1;jettySize=auto;html=1;exitX=0.5;exitY=1;exitDx=0;exitDy=0;entryX=0.5;entryY=0;entryDx=0;entryDy=0;" parent="WIyWlLk6GJQsqaUBKTNV-1" source="F_xe7TbDROOYynbk2gJU-9" edge="1">
          <mxGeometry relative="1" as="geometry">
            <mxPoint x="299" y="560" as="targetPoint" />
          </mxGeometry>
        </mxCell>
        <mxCell id="F_xe7TbDROOYynbk2gJU-9" value="경로 오류" style="rhombus;whiteSpace=wrap;html=1;" parent="WIyWlLk6GJQsqaUBKTNV-1" vertex="1">
          <mxGeometry x="259" y="452" width="80" height="48" as="geometry" />
        </mxCell>
        <mxCell id="F_xe7TbDROOYynbk2gJU-14" value="Y" style="text;html=1;align=center;verticalAlign=middle;resizable=0;points=[];autosize=1;fontColor=#FF3333;fontStyle=1" parent="WIyWlLk6GJQsqaUBKTNV-1" vertex="1">
          <mxGeometry x="249" y="452" width="30" height="30" as="geometry" />
        </mxCell>
        <mxCell id="F_xe7TbDROOYynbk2gJU-16" value="경로 오류 창 출력" style="rounded=0;whiteSpace=wrap;html=1;" parent="WIyWlLk6GJQsqaUBKTNV-1" vertex="1">
          <mxGeometry x="46" y="461" width="120" height="40" as="geometry" />
        </mxCell>
        <mxCell id="F_xe7TbDROOYynbk2gJU-19" value="N" style="text;html=1;align=center;verticalAlign=middle;resizable=0;points=[];autosize=1;fontColor=#FF3333;fontStyle=1" parent="WIyWlLk6GJQsqaUBKTNV-1" vertex="1">
          <mxGeometry x="299" y="490" width="30" height="30" as="geometry" />
        </mxCell>
        <mxCell id="F_xe7TbDROOYynbk2gJU-24" style="edgeStyle=orthogonalEdgeStyle;rounded=0;orthogonalLoop=1;jettySize=auto;html=1;exitX=0;exitY=0.5;exitDx=0;exitDy=0;entryX=1;entryY=0.5;entryDx=0;entryDy=0;" parent="WIyWlLk6GJQsqaUBKTNV-1" source="F_xe7TbDROOYynbk2gJU-22" edge="1">
          <mxGeometry relative="1" as="geometry">
            <mxPoint x="166" y="546" as="targetPoint" />
          </mxGeometry>
        </mxCell>
        <mxCell id="F_xe7TbDROOYynbk2gJU-33" style="edgeStyle=orthogonalEdgeStyle;rounded=0;orthogonalLoop=1;jettySize=auto;html=1;exitX=0.5;exitY=1;exitDx=0;exitDy=0;entryX=0.5;entryY=0;entryDx=0;entryDy=0;" parent="WIyWlLk6GJQsqaUBKTNV-1" source="F_xe7TbDROOYynbk2gJU-22" target="F_xe7TbDROOYynbk2gJU-32" edge="1">
          <mxGeometry relative="1" as="geometry" />
        </mxCell>
        <mxCell id="F_xe7TbDROOYynbk2gJU-22" value="이미지 오류" style="rhombus;whiteSpace=wrap;html=1;" parent="WIyWlLk6GJQsqaUBKTNV-1" vertex="1">
          <mxGeometry x="259" y="521" width="80" height="50" as="geometry" />
        </mxCell>
        <mxCell id="F_xe7TbDROOYynbk2gJU-23" value="이미지 오류 창 출력" style="rounded=0;whiteSpace=wrap;html=1;" parent="WIyWlLk6GJQsqaUBKTNV-1" vertex="1">
          <mxGeometry x="46" y="531" width="120" height="40" as="geometry" />
        </mxCell>
        <mxCell id="F_xe7TbDROOYynbk2gJU-27" style="edgeStyle=orthogonalEdgeStyle;rounded=0;orthogonalLoop=1;jettySize=auto;html=1;exitX=0.5;exitY=1;exitDx=0;exitDy=0;entryX=0.5;entryY=0;entryDx=0;entryDy=0;" parent="WIyWlLk6GJQsqaUBKTNV-1" source="F_xe7TbDROOYynbk2gJU-26" target="WIyWlLk6GJQsqaUBKTNV-3" edge="1">
          <mxGeometry relative="1" as="geometry" />
        </mxCell>
        <mxCell id="F_xe7TbDROOYynbk2gJU-26" value="사용자" style="rounded=1;whiteSpace=wrap;html=1;fontSize=12;glass=0;strokeWidth=1;shadow=0;arcSize=0;" parent="WIyWlLk6GJQsqaUBKTNV-1" vertex="1">
          <mxGeometry x="239" y="23" width="120" height="40" as="geometry" />
        </mxCell>
        <mxCell id="F_xe7TbDROOYynbk2gJU-30" value="Y" style="text;html=1;align=center;verticalAlign=middle;resizable=0;points=[];autosize=1;fontColor=#FF3333;fontStyle=1" parent="WIyWlLk6GJQsqaUBKTNV-1" vertex="1">
          <mxGeometry x="249" y="521" width="30" height="30" as="geometry" />
        </mxCell>
        <mxCell id="F_xe7TbDROOYynbk2gJU-31" value="N" style="text;html=1;align=center;verticalAlign=middle;resizable=0;points=[];autosize=1;fontColor=#FF3333;fontStyle=1" parent="WIyWlLk6GJQsqaUBKTNV-1" vertex="1">
          <mxGeometry x="299" y="561" width="30" height="30" as="geometry" />
        </mxCell>
        <mxCell id="UBPW31hqqWJ9olv7ByWD-2" style="edgeStyle=orthogonalEdgeStyle;rounded=0;orthogonalLoop=1;jettySize=auto;html=1;exitX=0.5;exitY=1;exitDx=0;exitDy=0;entryX=0.5;entryY=0;entryDx=0;entryDy=0;" parent="WIyWlLk6GJQsqaUBKTNV-1" source="F_xe7TbDROOYynbk2gJU-32" target="UBPW31hqqWJ9olv7ByWD-1" edge="1">
          <mxGeometry relative="1" as="geometry">
            <mxPoint x="299.2758620689656" y="646" as="targetPoint" />
          </mxGeometry>
        </mxCell>
        <mxCell id="F_xe7TbDROOYynbk2gJU-32" value="업로드 버튼" style="rounded=0;whiteSpace=wrap;html=1;" parent="WIyWlLk6GJQsqaUBKTNV-1" vertex="1">
          <mxGeometry x="239" y="592" width="120" height="40" as="geometry" />
        </mxCell>
        <mxCell id="cR3Bwys2uu89FO36zkq3-9" style="edgeStyle=orthogonalEdgeStyle;rounded=0;orthogonalLoop=1;jettySize=auto;html=1;exitX=1;exitY=0.5;exitDx=0;exitDy=0;entryX=0.5;entryY=0;entryDx=0;entryDy=0;" parent="WIyWlLk6GJQsqaUBKTNV-1" source="cR3Bwys2uu89FO36zkq3-0" target="F_xe7TbDROOYynbk2gJU-9" edge="1">
          <mxGeometry relative="1" as="geometry" />
        </mxCell>
        <mxCell id="cR3Bwys2uu89FO36zkq3-10" style="edgeStyle=orthogonalEdgeStyle;rounded=0;orthogonalLoop=1;jettySize=auto;html=1;exitX=0.5;exitY=1;exitDx=0;exitDy=0;entryX=0.5;entryY=0;entryDx=0;entryDy=0;" parent="WIyWlLk6GJQsqaUBKTNV-1" source="cR3Bwys2uu89FO36zkq3-0" target="cR3Bwys2uu89FO36zkq3-4" edge="1">
          <mxGeometry relative="1" as="geometry" />
        </mxCell>
        <mxCell id="cR3Bwys2uu89FO36zkq3-0" value="인터넷 주소" style="rhombus;whiteSpace=wrap;html=1;" parent="WIyWlLk6GJQsqaUBKTNV-1" vertex="1">
          <mxGeometry x="179" y="297" width="80" height="48" as="geometry" />
        </mxCell>
        <mxCell id="cR3Bwys2uu89FO36zkq3-3" value="Y" style="text;html=1;align=center;verticalAlign=middle;resizable=0;points=[];autosize=1;fontColor=#FF3333;fontStyle=1" parent="WIyWlLk6GJQsqaUBKTNV-1" vertex="1">
          <mxGeometry x="166" y="297" width="30" height="30" as="geometry" />
        </mxCell>
        <mxCell id="cR3Bwys2uu89FO36zkq3-11" style="edgeStyle=orthogonalEdgeStyle;rounded=0;orthogonalLoop=1;jettySize=auto;html=1;exitX=0.5;exitY=1;exitDx=0;exitDy=0;entryX=0.5;entryY=0;entryDx=0;entryDy=0;" parent="WIyWlLk6GJQsqaUBKTNV-1" source="cR3Bwys2uu89FO36zkq3-4" target="F_xe7TbDROOYynbk2gJU-9" edge="1">
          <mxGeometry relative="1" as="geometry" />
        </mxCell>
        <mxCell id="cR3Bwys2uu89FO36zkq3-4" value="인터넷 주소에서&amp;nbsp; &amp;nbsp;이미지 다운로드" style="rounded=1;whiteSpace=wrap;html=1;fontSize=12;glass=0;strokeWidth=1;shadow=0;arcSize=0;" parent="WIyWlLk6GJQsqaUBKTNV-1" vertex="1">
          <mxGeometry x="164" y="365" width="110" height="40" as="geometry" />
        </mxCell>
        <mxCell id="cR3Bwys2uu89FO36zkq3-8" value="N" style="text;html=1;align=center;verticalAlign=middle;resizable=0;points=[];autosize=1;fontColor=#FF3333;fontStyle=1" parent="WIyWlLk6GJQsqaUBKTNV-1" vertex="1">
          <mxGeometry x="239" y="285" width="30" height="30" as="geometry" />
        </mxCell>
        <mxCell id="UBPW31hqqWJ9olv7ByWD-1" value="이미지 출력" style="rounded=0;whiteSpace=wrap;html=1;" parent="WIyWlLk6GJQsqaUBKTNV-1" vertex="1">
          <mxGeometry x="239" y="656" width="120" height="40" as="geometry" />
        </mxCell>
        <mxCell id="UBPW31hqqWJ9olv7ByWD-4" style="edgeStyle=orthogonalEdgeStyle;rounded=0;orthogonalLoop=1;jettySize=auto;html=1;exitX=0.5;exitY=1;exitDx=0;exitDy=0;entryX=0.5;entryY=0;entryDx=0;entryDy=0;" parent="WIyWlLk6GJQsqaUBKTNV-1" target="UBPW31hqqWJ9olv7ByWD-5" edge="1">
          <mxGeometry relative="1" as="geometry">
            <mxPoint x="299.2758620689656" y="710" as="targetPoint" />
            <mxPoint x="299" y="696" as="sourcePoint" />
          </mxGeometry>
        </mxCell>
        <mxCell id="UBPW31hqqWJ9olv7ByWD-7" style="edgeStyle=orthogonalEdgeStyle;rounded=0;orthogonalLoop=1;jettySize=auto;html=1;exitX=1;exitY=0.5;exitDx=0;exitDy=0;entryX=0;entryY=0.5;entryDx=0;entryDy=0;" parent="WIyWlLk6GJQsqaUBKTNV-1" source="UBPW31hqqWJ9olv7ByWD-5" target="UBPW31hqqWJ9olv7ByWD-6" edge="1">
          <mxGeometry relative="1" as="geometry">
            <Array as="points">
              <mxPoint x="470" y="740" />
              <mxPoint x="470" y="185" />
              <mxPoint x="603" y="185" />
            </Array>
          </mxGeometry>
        </mxCell>
        <mxCell id="UBPW31hqqWJ9olv7ByWD-5" value="스타일 선택&amp;nbsp;&lt;div&gt;및 위치 지정&lt;/div&gt;" style="rounded=0;whiteSpace=wrap;html=1;" parent="WIyWlLk6GJQsqaUBKTNV-1" vertex="1">
          <mxGeometry x="239" y="720" width="120" height="40" as="geometry" />
        </mxCell>
        <mxCell id="UBPW31hqqWJ9olv7ByWD-16" style="edgeStyle=orthogonalEdgeStyle;rounded=0;orthogonalLoop=1;jettySize=auto;html=1;exitX=0.5;exitY=1;exitDx=0;exitDy=0;entryX=0.5;entryY=0;entryDx=0;entryDy=0;" parent="WIyWlLk6GJQsqaUBKTNV-1" source="UBPW31hqqWJ9olv7ByWD-6" target="UBPW31hqqWJ9olv7ByWD-13" edge="1">
          <mxGeometry relative="1" as="geometry" />
        </mxCell>
        <mxCell id="UBPW31hqqWJ9olv7ByWD-6" value="스타일 선택&amp;nbsp;&lt;div&gt;및 위치 지정&lt;/div&gt;" style="rounded=0;whiteSpace=wrap;html=1;" parent="WIyWlLk6GJQsqaUBKTNV-1" vertex="1">
          <mxGeometry x="603" y="164" width="120" height="40" as="geometry" />
        </mxCell>
        <mxCell id="PwpC6K-hRTQMMS9QJGnX-9" style="edgeStyle=orthogonalEdgeStyle;rounded=0;orthogonalLoop=1;jettySize=auto;html=1;exitX=1;exitY=0.5;exitDx=0;exitDy=0;entryX=0.5;entryY=0;entryDx=0;entryDy=0;" edge="1" parent="WIyWlLk6GJQsqaUBKTNV-1" source="UBPW31hqqWJ9olv7ByWD-13" target="UBPW31hqqWJ9olv7ByWD-21">
          <mxGeometry relative="1" as="geometry" />
        </mxCell>
        <mxCell id="PwpC6K-hRTQMMS9QJGnX-10" style="edgeStyle=orthogonalEdgeStyle;rounded=0;orthogonalLoop=1;jettySize=auto;html=1;exitX=1;exitY=0.5;exitDx=0;exitDy=0;entryX=0.5;entryY=0;entryDx=0;entryDy=0;" edge="1" parent="WIyWlLk6GJQsqaUBKTNV-1" source="UBPW31hqqWJ9olv7ByWD-13" target="UBPW31hqqWJ9olv7ByWD-24">
          <mxGeometry relative="1" as="geometry" />
        </mxCell>
        <mxCell id="PwpC6K-hRTQMMS9QJGnX-18" style="edgeStyle=orthogonalEdgeStyle;rounded=0;orthogonalLoop=1;jettySize=auto;html=1;exitX=0;exitY=0.5;exitDx=0;exitDy=0;entryX=0.5;entryY=0;entryDx=0;entryDy=0;" edge="1" parent="WIyWlLk6GJQsqaUBKTNV-1" source="UBPW31hqqWJ9olv7ByWD-13" target="UBPW31hqqWJ9olv7ByWD-18">
          <mxGeometry relative="1" as="geometry" />
        </mxCell>
        <mxCell id="UBPW31hqqWJ9olv7ByWD-13" value="원하는 색&amp;nbsp;&lt;div&gt;있을 시&lt;/div&gt;" style="rhombus;whiteSpace=wrap;html=1;" parent="WIyWlLk6GJQsqaUBKTNV-1" vertex="1">
          <mxGeometry x="615" y="235" width="96" height="60" as="geometry" />
        </mxCell>
        <mxCell id="UBPW31hqqWJ9olv7ByWD-14" value="Y" style="text;html=1;align=center;verticalAlign=middle;resizable=0;points=[];autosize=1;fontColor=#FF3333;fontStyle=1" parent="WIyWlLk6GJQsqaUBKTNV-1" vertex="1">
          <mxGeometry x="1530" y="440" width="30" height="30" as="geometry" />
        </mxCell>
        <mxCell id="UBPW31hqqWJ9olv7ByWD-15" value="N" style="text;html=1;align=center;verticalAlign=middle;resizable=0;points=[];autosize=1;fontColor=#FF3333;fontStyle=1" parent="WIyWlLk6GJQsqaUBKTNV-1" vertex="1">
          <mxGeometry x="685.5" y="230" width="30" height="30" as="geometry" />
        </mxCell>
        <mxCell id="PwpC6K-hRTQMMS9QJGnX-26" style="edgeStyle=orthogonalEdgeStyle;rounded=0;orthogonalLoop=1;jettySize=auto;html=1;exitX=0.5;exitY=1;exitDx=0;exitDy=0;entryX=0;entryY=0.5;entryDx=0;entryDy=0;" edge="1" parent="WIyWlLk6GJQsqaUBKTNV-1" source="UBPW31hqqWJ9olv7ByWD-18" target="UBPW31hqqWJ9olv7ByWD-26">
          <mxGeometry relative="1" as="geometry" />
        </mxCell>
        <mxCell id="UBPW31hqqWJ9olv7ByWD-18" value="색 선택" style="rounded=0;whiteSpace=wrap;html=1;" parent="WIyWlLk6GJQsqaUBKTNV-1" vertex="1">
          <mxGeometry x="483" y="297" width="120" height="40" as="geometry" />
        </mxCell>
        <mxCell id="UBPW31hqqWJ9olv7ByWD-20" value="Y" style="text;html=1;align=center;verticalAlign=middle;resizable=0;points=[];autosize=1;fontColor=#FF3333;fontStyle=1" parent="WIyWlLk6GJQsqaUBKTNV-1" vertex="1">
          <mxGeometry x="610.5" y="230" width="30" height="30" as="geometry" />
        </mxCell>
        <mxCell id="PwpC6K-hRTQMMS9QJGnX-12" style="edgeStyle=orthogonalEdgeStyle;rounded=0;orthogonalLoop=1;jettySize=auto;html=1;exitX=0.5;exitY=1;exitDx=0;exitDy=0;entryX=0.5;entryY=0;entryDx=0;entryDy=0;" edge="1" parent="WIyWlLk6GJQsqaUBKTNV-1" source="UBPW31hqqWJ9olv7ByWD-21" target="PwpC6K-hRTQMMS9QJGnX-11">
          <mxGeometry relative="1" as="geometry" />
        </mxCell>
        <mxCell id="UBPW31hqqWJ9olv7ByWD-21" value="색 추가" style="rounded=0;whiteSpace=wrap;html=1;" parent="WIyWlLk6GJQsqaUBKTNV-1" vertex="1">
          <mxGeometry x="670" y="297" width="120" height="40" as="geometry" />
        </mxCell>
        <mxCell id="PwpC6K-hRTQMMS9QJGnX-29" style="edgeStyle=orthogonalEdgeStyle;rounded=0;orthogonalLoop=1;jettySize=auto;html=1;exitX=0.5;exitY=1;exitDx=0;exitDy=0;entryX=1;entryY=0.5;entryDx=0;entryDy=0;" edge="1" parent="WIyWlLk6GJQsqaUBKTNV-1" source="UBPW31hqqWJ9olv7ByWD-24" target="UBPW31hqqWJ9olv7ByWD-26">
          <mxGeometry relative="1" as="geometry" />
        </mxCell>
        <mxCell id="UBPW31hqqWJ9olv7ByWD-24" value="색 지정 버튼" style="rounded=0;whiteSpace=wrap;html=1;" parent="WIyWlLk6GJQsqaUBKTNV-1" vertex="1">
          <mxGeometry x="800" y="297" width="120" height="40" as="geometry" />
        </mxCell>
        <mxCell id="UBPW31hqqWJ9olv7ByWD-31" style="edgeStyle=orthogonalEdgeStyle;rounded=0;orthogonalLoop=1;jettySize=auto;html=1;exitX=0.5;exitY=1;exitDx=0;exitDy=0;entryX=0.5;entryY=0;entryDx=0;entryDy=0;" parent="WIyWlLk6GJQsqaUBKTNV-1" source="UBPW31hqqWJ9olv7ByWD-26" target="UBPW31hqqWJ9olv7ByWD-30" edge="1">
          <mxGeometry relative="1" as="geometry" />
        </mxCell>
        <mxCell id="UBPW31hqqWJ9olv7ByWD-26" value="합성 버튼 클릭" style="rounded=0;whiteSpace=wrap;html=1;" parent="WIyWlLk6GJQsqaUBKTNV-1" vertex="1">
          <mxGeometry x="603" y="517" width="120" height="40" as="geometry" />
        </mxCell>
        <mxCell id="UBPW31hqqWJ9olv7ByWD-30" value="색상 값 출력" style="rounded=0;whiteSpace=wrap;html=1;" parent="WIyWlLk6GJQsqaUBKTNV-1" vertex="1">
          <mxGeometry x="603" y="583" width="120" height="40" as="geometry" />
        </mxCell>
        <mxCell id="UBPW31hqqWJ9olv7ByWD-33" style="edgeStyle=orthogonalEdgeStyle;rounded=0;orthogonalLoop=1;jettySize=auto;html=1;exitX=0.5;exitY=1;exitDx=0;exitDy=0;" parent="WIyWlLk6GJQsqaUBKTNV-1" source="UBPW31hqqWJ9olv7ByWD-30" edge="1">
          <mxGeometry relative="1" as="geometry">
            <mxPoint x="662.5799999999999" y="625" as="sourcePoint" />
            <mxPoint x="663" y="647" as="targetPoint" />
          </mxGeometry>
        </mxCell>
        <mxCell id="PwpC6K-hRTQMMS9QJGnX-1" value="이미지 합성" style="rounded=0;whiteSpace=wrap;html=1;" vertex="1" parent="WIyWlLk6GJQsqaUBKTNV-1">
          <mxGeometry x="603" y="651" width="120" height="40" as="geometry" />
        </mxCell>
        <mxCell id="PwpC6K-hRTQMMS9QJGnX-2" style="edgeStyle=orthogonalEdgeStyle;rounded=0;orthogonalLoop=1;jettySize=auto;html=1;exitX=0.5;exitY=1;exitDx=0;exitDy=0;" edge="1" parent="WIyWlLk6GJQsqaUBKTNV-1">
          <mxGeometry relative="1" as="geometry">
            <mxPoint x="663" y="692" as="sourcePoint" />
            <mxPoint x="663" y="716" as="targetPoint" />
          </mxGeometry>
        </mxCell>
        <mxCell id="PwpC6K-hRTQMMS9QJGnX-3" value="이미지 저장" style="rounded=0;whiteSpace=wrap;html=1;" vertex="1" parent="WIyWlLk6GJQsqaUBKTNV-1">
          <mxGeometry x="603" y="720" width="120" height="40" as="geometry" />
        </mxCell>
        <mxCell id="PwpC6K-hRTQMMS9QJGnX-7" style="edgeStyle=orthogonalEdgeStyle;rounded=0;orthogonalLoop=1;jettySize=auto;html=1;exitX=0.5;exitY=1;exitDx=0;exitDy=0;entryX=0.5;entryY=0;entryDx=0;entryDy=0;" edge="1" parent="WIyWlLk6GJQsqaUBKTNV-1" source="PwpC6K-hRTQMMS9QJGnX-5" target="F_xe7TbDROOYynbk2gJU-8">
          <mxGeometry relative="1" as="geometry" />
        </mxCell>
        <mxCell id="PwpC6K-hRTQMMS9QJGnX-8" style="edgeStyle=orthogonalEdgeStyle;rounded=0;orthogonalLoop=1;jettySize=auto;html=1;exitX=0.5;exitY=1;exitDx=0;exitDy=0;" edge="1" parent="WIyWlLk6GJQsqaUBKTNV-1" source="PwpC6K-hRTQMMS9QJGnX-5" target="F_xe7TbDROOYynbk2gJU-1">
          <mxGeometry relative="1" as="geometry" />
        </mxCell>
        <mxCell id="PwpC6K-hRTQMMS9QJGnX-5" value="설정 가져오기&lt;div&gt;(경로, 색 목록)&lt;/div&gt;" style="rounded=1;whiteSpace=wrap;html=1;fontSize=12;glass=0;strokeWidth=1;shadow=0;arcSize=0;" vertex="1" parent="WIyWlLk6GJQsqaUBKTNV-1">
          <mxGeometry x="239" y="156" width="120" height="40" as="geometry" />
        </mxCell>
        <mxCell id="PwpC6K-hRTQMMS9QJGnX-6" style="edgeStyle=orthogonalEdgeStyle;rounded=0;orthogonalLoop=1;jettySize=auto;html=1;exitX=0.5;exitY=1;exitDx=0;exitDy=0;entryX=0.5;entryY=0;entryDx=0;entryDy=0;" edge="1" parent="WIyWlLk6GJQsqaUBKTNV-1" target="PwpC6K-hRTQMMS9QJGnX-5">
          <mxGeometry relative="1" as="geometry">
            <mxPoint x="299" y="130" as="sourcePoint" />
          </mxGeometry>
        </mxCell>
        <mxCell id="PwpC6K-hRTQMMS9QJGnX-28" style="edgeStyle=orthogonalEdgeStyle;rounded=0;orthogonalLoop=1;jettySize=auto;html=1;exitX=0.5;exitY=1;exitDx=0;exitDy=0;entryX=0.5;entryY=0;entryDx=0;entryDy=0;" edge="1" parent="WIyWlLk6GJQsqaUBKTNV-1" source="PwpC6K-hRTQMMS9QJGnX-11" target="PwpC6K-hRTQMMS9QJGnX-21">
          <mxGeometry relative="1" as="geometry" />
        </mxCell>
        <mxCell id="PwpC6K-hRTQMMS9QJGnX-11" value="색 목록 저장" style="rounded=0;whiteSpace=wrap;html=1;" vertex="1" parent="WIyWlLk6GJQsqaUBKTNV-1">
          <mxGeometry x="670" y="360" width="120" height="40" as="geometry" />
        </mxCell>
        <mxCell id="PwpC6K-hRTQMMS9QJGnX-25" style="edgeStyle=orthogonalEdgeStyle;rounded=0;orthogonalLoop=1;jettySize=auto;html=1;exitX=0;exitY=0.5;exitDx=0;exitDy=0;entryX=1;entryY=0.5;entryDx=0;entryDy=0;" edge="1" parent="WIyWlLk6GJQsqaUBKTNV-1" source="PwpC6K-hRTQMMS9QJGnX-21" target="PwpC6K-hRTQMMS9QJGnX-24">
          <mxGeometry relative="1" as="geometry" />
        </mxCell>
        <mxCell id="PwpC6K-hRTQMMS9QJGnX-27" style="edgeStyle=orthogonalEdgeStyle;rounded=0;orthogonalLoop=1;jettySize=auto;html=1;exitX=0.5;exitY=1;exitDx=0;exitDy=0;entryX=0.5;entryY=0;entryDx=0;entryDy=0;" edge="1" parent="WIyWlLk6GJQsqaUBKTNV-1" source="PwpC6K-hRTQMMS9QJGnX-21" target="UBPW31hqqWJ9olv7ByWD-26">
          <mxGeometry relative="1" as="geometry" />
        </mxCell>
        <mxCell id="PwpC6K-hRTQMMS9QJGnX-21" value="RGB 오류" style="rhombus;whiteSpace=wrap;html=1;" vertex="1" parent="WIyWlLk6GJQsqaUBKTNV-1">
          <mxGeometry x="690" y="422" width="80" height="48" as="geometry" />
        </mxCell>
        <mxCell id="PwpC6K-hRTQMMS9QJGnX-22" value="N" style="text;html=1;align=center;verticalAlign=middle;resizable=0;points=[];autosize=1;fontColor=#FF3333;fontStyle=1" vertex="1" parent="WIyWlLk6GJQsqaUBKTNV-1">
          <mxGeometry x="693" y="452" width="30" height="30" as="geometry" />
        </mxCell>
        <mxCell id="PwpC6K-hRTQMMS9QJGnX-23" value="Y" style="text;html=1;align=center;verticalAlign=middle;resizable=0;points=[];autosize=1;fontColor=#FF3333;fontStyle=1" vertex="1" parent="WIyWlLk6GJQsqaUBKTNV-1">
          <mxGeometry x="693" y="410" width="30" height="30" as="geometry" />
        </mxCell>
        <mxCell id="PwpC6K-hRTQMMS9QJGnX-24" value="RGB 오류 창 출력" style="rounded=0;whiteSpace=wrap;html=1;" vertex="1" parent="WIyWlLk6GJQsqaUBKTNV-1">
          <mxGeometry x="550" y="426" width="120" height="40" as="geometry" />
        </mxCell>
      </root>
    </mxGraphModel>
  </diagram>
</mxfile>
